# xmcd
#
# Track frame offsets:
#	182
#	15897
#	28550
#	45145
#	63592
#	79952
#	99727
#	113325
#	132195
#	148727
#	167542
#	183230
#	203862
#	222297
#	242182
#
# Disc length: 3411 seconds
#
# Revision: 2
# Processed by: cddbd v1.5.2PL0 Copyright (c) Steve Scherf et al.
# Submitted via: audiograbber 1.83.01
#
DISCID=c10d510f
DTITLE=Varios - Viva Italia
DYEAR=1993
DGENRE=National Folk
TTITLE0=Mongol/Crane/Jacobs - A Chi
TTITLE1=Meccia/Fontana/Pes - Il Mondo
TTITLE2=Migliacci/Mattone - Encora
TTITLE3=Testa/Tony Renis - Grande,Grande,Grande
TTITLE4=Minellono/Farina - Come Vorrei
TTITLE5=Bigazzi/Tozzi - Tu
TTITLE6=Ghinazzi/Pace/Farina - Sara perche ti amo
TTITLE7=Domenico Modugno - Volare
TTITLE8=Minellono/Cutugno - L'Italiano
TTITLE9=Migliacci/Fontana/Pes - Che Sara
TTITLE10=Stellita/Narrale/Cassano - Solo Tu
TTITLE11=Mogol/Battisti - Encora Tu
TTITLE12=Lubierti/Cocciante - Io Canto
TTITLE13=Bigazzi/Tozzi - Gloria
TTITLE14=Brezza/Nini Rosso - Il Silenzio
EXTD=
EXTT0=
EXTT1=
EXTT2=
EXTT3=
EXTT4=
EXTT5=
EXTT6=
EXTT7=
EXTT8=
EXTT9=
EXTT10=
EXTT11=
EXTT12=
EXTT13=
EXTT14=
PLAYORDER=
